<svg width="750" height="350" viewBox="0 0 750 350" fill="none" xmlns="http://www.w3.org/2000/svg">
<rect width="750" height="350" rx="5" fill="#477BFF"/>
<path d="M290.188 124.75V193H274.391V142.562L258.828 147.109V135.109L288.734 124.75H290.188ZM358.297 152.641V165.109C358.297 170.016 357.719 174.281 356.562 177.906C355.438 181.531 353.812 184.531 351.688 186.906C349.594 189.281 347.094 191.047 344.188 192.203C341.281 193.359 338.078 193.938 334.578 193.938C331.766 193.938 329.141 193.578 326.703 192.859C324.266 192.109 322.062 190.984 320.094 189.484C318.156 187.953 316.484 186.047 315.078 183.766C313.672 181.484 312.594 178.797 311.844 175.703C311.094 172.578 310.719 169.047 310.719 165.109V152.641C310.719 147.703 311.281 143.438 312.406 139.844C313.562 136.219 315.203 133.219 317.328 130.844C319.453 128.469 321.969 126.703 324.875 125.547C327.781 124.391 330.984 123.812 334.484 123.812C337.297 123.812 339.906 124.188 342.312 124.938C344.75 125.656 346.953 126.781 348.922 128.312C350.891 129.812 352.562 131.703 353.938 133.984C355.344 136.266 356.422 138.969 357.172 142.094C357.922 145.188 358.297 148.703 358.297 152.641ZM342.5 167.031V150.625C342.5 148.438 342.375 146.531 342.125 144.906C341.906 143.281 341.562 141.906 341.094 140.781C340.656 139.656 340.109 138.75 339.453 138.062C338.797 137.344 338.047 136.828 337.203 136.516C336.391 136.172 335.484 136 334.484 136C333.234 136 332.109 136.266 331.109 136.797C330.141 137.297 329.312 138.109 328.625 139.234C327.938 140.359 327.406 141.859 327.031 143.734C326.688 145.609 326.516 147.906 326.516 150.625V167.031C326.516 169.25 326.625 171.188 326.844 172.844C327.094 174.469 327.438 175.859 327.875 177.016C328.344 178.141 328.906 179.062 329.562 179.781C330.219 180.469 330.969 180.969 331.812 181.281C332.656 181.594 333.578 181.75 334.578 181.75C335.797 181.75 336.891 181.5 337.859 181C338.828 180.5 339.656 179.688 340.344 178.562C341.062 177.406 341.594 175.891 341.938 174.016C342.312 172.109 342.5 169.781 342.5 167.031ZM413.984 152.641V165.109C413.984 170.016 413.406 174.281 412.25 177.906C411.125 181.531 409.5 184.531 407.375 186.906C405.281 189.281 402.781 191.047 399.875 192.203C396.969 193.359 393.766 193.938 390.266 193.938C387.453 193.938 384.828 193.578 382.391 192.859C379.953 192.109 377.75 190.984 375.781 189.484C373.844 187.953 372.172 186.047 370.766 183.766C369.359 181.484 368.281 178.797 367.531 175.703C366.781 172.578 366.406 169.047 366.406 165.109V152.641C366.406 147.703 366.969 143.438 368.094 139.844C369.25 136.219 370.891 133.219 373.016 130.844C375.141 128.469 377.656 126.703 380.562 125.547C383.469 124.391 386.672 123.812 390.172 123.812C392.984 123.812 395.594 124.188 398 124.938C400.438 125.656 402.641 126.781 404.609 128.312C406.578 129.812 408.25 131.703 409.625 133.984C411.031 136.266 412.109 138.969 412.859 142.094C413.609 145.188 413.984 148.703 413.984 152.641ZM398.188 167.031V150.625C398.188 148.438 398.062 146.531 397.812 144.906C397.594 143.281 397.25 141.906 396.781 140.781C396.344 139.656 395.797 138.75 395.141 138.062C394.484 137.344 393.734 136.828 392.891 136.516C392.078 136.172 391.172 136 390.172 136C388.922 136 387.797 136.266 386.797 136.797C385.828 137.297 385 138.109 384.312 139.234C383.625 140.359 383.094 141.859 382.719 143.734C382.375 145.609 382.203 147.906 382.203 150.625V167.031C382.203 169.25 382.312 171.188 382.531 172.844C382.781 174.469 383.125 175.859 383.562 177.016C384.031 178.141 384.594 179.062 385.25 179.781C385.906 180.469 386.656 180.969 387.5 181.281C388.344 181.594 389.266 181.75 390.266 181.75C391.484 181.75 392.578 181.5 393.547 181C394.516 180.5 395.344 179.688 396.031 178.562C396.75 177.406 397.281 175.891 397.625 174.016C398 172.109 398.188 169.781 398.188 167.031ZM422.328 141.484V137.875C422.328 135.281 422.891 132.922 424.016 130.797C425.141 128.672 426.828 126.969 429.078 125.688C431.328 124.406 434.125 123.766 437.469 123.766C440.906 123.766 443.75 124.406 446 125.688C448.25 126.969 449.922 128.672 451.016 130.797C452.141 132.922 452.703 135.281 452.703 137.875V141.484C452.703 144.016 452.141 146.344 451.016 148.469C449.922 150.594 448.25 152.297 446 153.578C443.781 154.859 440.984 155.5 437.609 155.5C434.203 155.5 431.375 154.859 429.125 153.578C426.875 152.297 425.172 150.594 424.016 148.469C422.891 146.344 422.328 144.016 422.328 141.484ZM432.453 137.875V141.484C432.453 142.422 432.641 143.312 433.016 144.156C433.391 145 433.953 145.688 434.703 146.219C435.484 146.719 436.438 146.969 437.562 146.969C438.719 146.969 439.656 146.719 440.375 146.219C441.094 145.688 441.625 145 441.969 144.156C442.344 143.312 442.531 142.422 442.531 141.484V137.875C442.531 136.875 442.344 135.953 441.969 135.109C441.625 134.266 441.078 133.594 440.328 133.094C439.578 132.562 438.625 132.297 437.469 132.297C436.375 132.297 435.453 132.562 434.703 133.094C433.953 133.594 433.391 134.266 433.016 135.109C432.641 135.953 432.453 136.875 432.453 137.875ZM454.719 179.875V176.266C454.719 173.703 455.281 171.359 456.406 169.234C457.562 167.109 459.266 165.406 461.516 164.125C463.797 162.844 466.609 162.203 469.953 162.203C473.391 162.203 476.219 162.844 478.438 164.125C480.688 165.406 482.359 167.109 483.453 169.234C484.578 171.359 485.141 173.703 485.141 176.266V179.875C485.141 182.438 484.578 184.781 483.453 186.906C482.359 189.031 480.703 190.734 478.484 192.016C476.266 193.297 473.469 193.938 470.094 193.938C466.688 193.938 463.844 193.297 461.562 192.016C459.281 190.734 457.562 189.031 456.406 186.906C455.281 184.781 454.719 182.438 454.719 179.875ZM464.891 176.266V179.875C464.891 180.844 465.125 181.75 465.594 182.594C466.062 183.438 466.688 184.125 467.469 184.656C468.25 185.156 469.109 185.406 470.047 185.406C471.484 185.406 472.547 185.156 473.234 184.656C473.953 184.125 474.422 183.438 474.641 182.594C474.891 181.75 475.016 180.844 475.016 179.875V176.266C475.016 175.297 474.828 174.391 474.453 173.547C474.078 172.703 473.516 172.031 472.766 171.531C472.016 171 471.078 170.734 469.953 170.734C468.828 170.734 467.891 171 467.141 171.531C466.391 172.031 465.828 172.703 465.453 173.547C465.078 174.391 464.891 175.297 464.891 176.266ZM473.891 134.547L440.562 187.891L433.203 184.188L466.531 130.844L473.891 134.547Z" fill="#263238"/>
<path d="M238.006 215.207H242.613L242.545 219.869C242.518 221.546 242.322 222.986 241.957 224.189C241.602 225.383 241.118 226.382 240.508 227.184C239.897 227.977 239.195 228.601 238.402 229.057C237.618 229.503 236.789 229.818 235.914 230H235.422L235.326 226.5L235.682 226.445C236.229 225.898 236.652 225.379 236.953 224.887C237.263 224.385 237.482 223.884 237.609 223.383C237.746 222.882 237.833 222.348 237.869 221.783C237.906 221.209 237.928 220.571 237.938 219.869L238.006 215.207ZM239.291 215.207H249.518V230H244.924V218.762H239.291V215.207ZM234.369 226.445H251.732V234.484H247.125V230H239.1V234.484H234.369V226.445ZM252.744 222.754V222.467C252.744 221.382 252.899 220.384 253.209 219.473C253.519 218.552 253.975 217.755 254.576 217.08C255.178 216.406 255.921 215.882 256.805 215.508C257.689 215.125 258.71 214.934 259.867 214.934C261.034 214.934 262.059 215.125 262.943 215.508C263.837 215.882 264.584 216.406 265.186 217.08C265.787 217.755 266.243 218.552 266.553 219.473C266.863 220.384 267.018 221.382 267.018 222.467V222.754C267.018 223.829 266.863 224.827 266.553 225.748C266.243 226.66 265.787 227.457 265.186 228.141C264.584 228.815 263.841 229.339 262.957 229.713C262.073 230.087 261.052 230.273 259.895 230.273C258.737 230.273 257.712 230.087 256.818 229.713C255.925 229.339 255.178 228.815 254.576 228.141C253.975 227.457 253.519 226.66 253.209 225.748C252.899 224.827 252.744 223.829 252.744 222.754ZM257.352 222.467V222.754C257.352 223.31 257.393 223.829 257.475 224.312C257.557 224.796 257.693 225.219 257.885 225.584C258.076 225.939 258.336 226.217 258.664 226.418C258.992 226.618 259.402 226.719 259.895 226.719C260.378 226.719 260.779 226.618 261.098 226.418C261.426 226.217 261.686 225.939 261.877 225.584C262.068 225.219 262.205 224.796 262.287 224.312C262.369 223.829 262.41 223.31 262.41 222.754V222.467C262.41 221.929 262.369 221.423 262.287 220.949C262.205 220.466 262.068 220.042 261.877 219.678C261.686 219.304 261.426 219.012 261.098 218.803C260.77 218.593 260.359 218.488 259.867 218.488C259.384 218.488 258.979 218.593 258.65 218.803C258.331 219.012 258.076 219.304 257.885 219.678C257.693 220.042 257.557 220.466 257.475 220.949C257.393 221.423 257.352 221.929 257.352 222.467ZM276.684 223.971H272.145L272.117 221.127H275.891C276.264 221.127 276.561 221.086 276.779 221.004C277.007 220.922 277.167 220.799 277.258 220.635C277.358 220.462 277.408 220.257 277.408 220.02C277.408 219.783 277.372 219.582 277.299 219.418C277.235 219.254 277.13 219.122 276.984 219.021C276.848 218.921 276.674 218.848 276.465 218.803C276.255 218.757 276.009 218.734 275.727 218.734H273.99V230H269.383V215.207H275.727C276.702 215.207 277.577 215.294 278.352 215.467C279.126 215.631 279.783 215.886 280.32 216.232C280.867 216.57 281.286 216.998 281.578 217.518C281.87 218.037 282.016 218.648 282.016 219.35C282.016 219.805 281.906 220.234 281.688 220.635C281.469 221.036 281.145 221.391 280.717 221.701C280.298 222.011 279.778 222.266 279.158 222.467C278.538 222.658 277.827 222.777 277.025 222.822L276.684 223.971ZM276.684 230H271.146L272.555 226.473H276.684C277.066 226.473 277.376 226.427 277.613 226.336C277.85 226.245 278.023 226.108 278.133 225.926C278.242 225.743 278.297 225.52 278.297 225.256C278.297 225.001 278.251 224.777 278.16 224.586C278.069 224.395 277.905 224.244 277.668 224.135C277.44 224.025 277.112 223.971 276.684 223.971H273.074L273.102 221.127H276.998L277.982 222.289C279.131 222.353 280.065 222.549 280.785 222.877C281.514 223.205 282.048 223.62 282.385 224.121C282.731 224.622 282.904 225.174 282.904 225.775C282.904 226.477 282.768 227.092 282.494 227.621C282.23 228.15 281.833 228.592 281.305 228.947C280.776 229.294 280.124 229.558 279.35 229.74C278.584 229.913 277.695 230 276.684 230ZM284.217 222.754V222.467C284.217 221.382 284.372 220.384 284.682 219.473C284.992 218.552 285.447 217.755 286.049 217.08C286.65 216.406 287.393 215.882 288.277 215.508C289.161 215.125 290.182 214.934 291.34 214.934C292.507 214.934 293.532 215.125 294.416 215.508C295.309 215.882 296.057 216.406 296.658 217.08C297.26 217.755 297.715 218.552 298.025 219.473C298.335 220.384 298.49 221.382 298.49 222.467V222.754C298.49 223.829 298.335 224.827 298.025 225.748C297.715 226.66 297.26 227.457 296.658 228.141C296.057 228.815 295.314 229.339 294.43 229.713C293.546 230.087 292.525 230.273 291.367 230.273C290.21 230.273 289.184 230.087 288.291 229.713C287.398 229.339 286.65 228.815 286.049 228.141C285.447 227.457 284.992 226.66 284.682 225.748C284.372 224.827 284.217 223.829 284.217 222.754ZM288.824 222.467V222.754C288.824 223.31 288.865 223.829 288.947 224.312C289.029 224.796 289.166 225.219 289.357 225.584C289.549 225.939 289.809 226.217 290.137 226.418C290.465 226.618 290.875 226.719 291.367 226.719C291.85 226.719 292.251 226.618 292.57 226.418C292.898 226.217 293.158 225.939 293.35 225.584C293.541 225.219 293.678 224.796 293.76 224.312C293.842 223.829 293.883 223.31 293.883 222.754V222.467C293.883 221.929 293.842 221.423 293.76 220.949C293.678 220.466 293.541 220.042 293.35 219.678C293.158 219.304 292.898 219.012 292.57 218.803C292.242 218.593 291.832 218.488 291.34 218.488C290.857 218.488 290.451 218.593 290.123 218.803C289.804 219.012 289.549 219.304 289.357 219.678C289.166 220.042 289.029 220.466 288.947 220.949C288.865 221.423 288.824 221.929 288.824 222.467ZM310.357 215.207V218.762H303.029V215.207H310.357ZM313.543 215.207V230H308.936V215.207H313.543ZM301.867 215.207H306.365L305.955 222.822C305.9 223.88 305.777 224.805 305.586 225.598C305.404 226.391 305.158 227.07 304.848 227.635C304.547 228.191 304.187 228.646 303.768 229.002C303.348 229.348 302.874 229.604 302.346 229.768C301.817 229.923 301.243 230 300.623 230H299.229L299.16 226.473L299.652 226.418C299.898 226.391 300.117 226.309 300.309 226.172C300.5 226.035 300.669 225.844 300.814 225.598C300.96 225.352 301.083 225.037 301.184 224.654C301.293 224.271 301.38 223.82 301.443 223.301C301.516 222.781 301.566 222.184 301.594 221.51L301.867 215.207ZM319.148 219.268H323.359C324.781 219.268 325.998 219.495 327.01 219.951C328.031 220.398 328.814 221.031 329.361 221.852C329.908 222.663 330.182 223.611 330.182 224.695C330.182 225.47 330.027 226.186 329.717 226.842C329.407 227.489 328.956 228.049 328.363 228.523C327.78 228.988 327.064 229.353 326.217 229.617C325.378 229.872 324.426 230 323.359 230H316.387V215.207H321.008V226.473H323.359C323.888 226.473 324.312 226.391 324.631 226.227C324.959 226.062 325.201 225.844 325.355 225.57C325.51 225.297 325.588 224.996 325.588 224.668C325.588 224.303 325.51 223.984 325.355 223.711C325.201 223.428 324.959 223.21 324.631 223.055C324.312 222.891 323.888 222.809 323.359 222.809H319.148V219.268ZM342.131 220.977V224.518H334.748V220.977H342.131ZM336.43 215.207V230H331.822V215.207H336.43ZM345.084 215.207V230H340.463V215.207H345.084ZM350.703 219.268H354.914C356.336 219.268 357.553 219.495 358.564 219.951C359.585 220.398 360.369 221.031 360.916 221.852C361.463 222.663 361.736 223.611 361.736 224.695C361.736 225.47 361.581 226.186 361.271 226.842C360.962 227.489 360.51 228.049 359.918 228.523C359.335 228.988 358.619 229.353 357.771 229.617C356.933 229.872 355.98 230 354.914 230H347.941V215.207H352.562V226.473H354.914C355.443 226.473 355.867 226.391 356.186 226.227C356.514 226.062 356.755 225.844 356.91 225.57C357.065 225.297 357.143 224.996 357.143 224.668C357.143 224.303 357.065 223.984 356.91 223.711C356.755 223.428 356.514 223.21 356.186 223.055C355.867 222.891 355.443 222.809 354.914 222.809H350.703V219.268ZM368.559 215.207V230H363.938V215.207H368.559ZM375.408 215.207L377.486 219.281L379.633 215.207H384.418L380.535 222.412L384.623 230H379.797L377.486 225.625L375.189 230H370.363L374.451 222.412L370.582 215.207H375.408ZM397.83 215.207V230H393.223V215.207H397.83ZM407.414 215.207L401.344 224.832H397.215L396.695 220.525H399.17L401.508 215.207H407.414ZM401.604 230L398.828 223.971L403.107 222.043L407.852 230H401.604ZM418.994 215.207V218.762H411.666V215.207H418.994ZM422.18 215.207V230H417.572V215.207H422.18ZM410.504 215.207H415.002L414.592 222.822C414.537 223.88 414.414 224.805 414.223 225.598C414.04 226.391 413.794 227.07 413.484 227.635C413.184 228.191 412.824 228.646 412.404 229.002C411.985 229.348 411.511 229.604 410.982 229.768C410.454 229.923 409.88 230 409.26 230H407.865L407.797 226.473L408.289 226.418C408.535 226.391 408.754 226.309 408.945 226.172C409.137 226.035 409.305 225.844 409.451 225.598C409.597 225.352 409.72 225.037 409.82 224.654C409.93 224.271 410.016 223.82 410.08 223.301C410.153 222.781 410.203 222.184 410.23 221.51L410.504 215.207ZM429.248 223.793L433.322 215.207H437.93V230H433.322V221.387L429.248 230H424.627V215.207H429.248V223.793ZM447.596 230.273C446.393 230.273 445.317 230.087 444.369 229.713C443.421 229.33 442.619 228.806 441.963 228.141C441.316 227.475 440.819 226.71 440.473 225.844C440.135 224.978 439.967 224.062 439.967 223.096V222.576C439.967 221.492 440.117 220.489 440.418 219.568C440.719 218.639 441.165 217.827 441.758 217.135C442.35 216.442 443.093 215.904 443.986 215.521C444.88 215.13 445.919 214.934 447.104 214.934C448.152 214.934 449.09 215.102 449.92 215.439C450.749 215.777 451.451 216.26 452.025 216.889C452.609 217.518 453.051 218.279 453.352 219.172C453.661 220.065 453.816 221.068 453.816 222.18V224.053H441.73V221.168H449.318V220.812C449.327 220.32 449.241 219.901 449.059 219.555C448.885 219.208 448.63 218.944 448.293 218.762C447.956 218.579 447.546 218.488 447.062 218.488C446.561 218.488 446.146 218.598 445.818 218.816C445.499 219.035 445.249 219.336 445.066 219.719C444.893 220.092 444.77 220.525 444.697 221.018C444.624 221.51 444.588 222.029 444.588 222.576V223.096C444.588 223.643 444.661 224.139 444.807 224.586C444.962 225.033 445.18 225.415 445.463 225.734C445.755 226.044 446.101 226.286 446.502 226.459C446.912 226.632 447.377 226.719 447.896 226.719C448.525 226.719 449.145 226.6 449.756 226.363C450.367 226.126 450.891 225.734 451.328 225.188L453.42 227.676C453.119 228.104 452.691 228.519 452.135 228.92C451.588 229.321 450.932 229.649 450.166 229.904C449.4 230.15 448.544 230.273 447.596 230.273ZM465.916 220.977V224.518H458.533V220.977H465.916ZM460.215 215.207V230H455.607V215.207H460.215ZM468.869 215.207V230H464.248V215.207H468.869ZM479.697 215.207V230H475.076V215.207H479.697ZM484.373 215.207V218.734H470.482V215.207H484.373ZM485.111 222.754V222.467C485.111 221.382 485.266 220.384 485.576 219.473C485.886 218.552 486.342 217.755 486.943 217.08C487.545 216.406 488.288 215.882 489.172 215.508C490.056 215.125 491.077 214.934 492.234 214.934C493.401 214.934 494.426 215.125 495.311 215.508C496.204 215.882 496.951 216.406 497.553 217.08C498.154 217.755 498.61 218.552 498.92 219.473C499.23 220.384 499.385 221.382 499.385 222.467V222.754C499.385 223.829 499.23 224.827 498.92 225.748C498.61 226.66 498.154 227.457 497.553 228.141C496.951 228.815 496.208 229.339 495.324 229.713C494.44 230.087 493.419 230.273 492.262 230.273C491.104 230.273 490.079 230.087 489.186 229.713C488.292 229.339 487.545 228.815 486.943 228.141C486.342 227.457 485.886 226.66 485.576 225.748C485.266 224.827 485.111 223.829 485.111 222.754ZM489.719 222.467V222.754C489.719 223.31 489.76 223.829 489.842 224.312C489.924 224.796 490.061 225.219 490.252 225.584C490.443 225.939 490.703 226.217 491.031 226.418C491.359 226.618 491.77 226.719 492.262 226.719C492.745 226.719 493.146 226.618 493.465 226.418C493.793 226.217 494.053 225.939 494.244 225.584C494.436 225.219 494.572 224.796 494.654 224.312C494.736 223.829 494.777 223.31 494.777 222.754V222.467C494.777 221.929 494.736 221.423 494.654 220.949C494.572 220.466 494.436 220.042 494.244 219.678C494.053 219.304 493.793 219.012 493.465 218.803C493.137 218.593 492.727 218.488 492.234 218.488C491.751 218.488 491.346 218.593 491.018 218.803C490.699 219.012 490.443 219.304 490.252 219.678C490.061 220.042 489.924 220.466 489.842 220.949C489.76 221.423 489.719 221.929 489.719 222.467ZM509.051 223.971H504.512L504.484 221.127H508.258C508.632 221.127 508.928 221.086 509.146 221.004C509.374 220.922 509.534 220.799 509.625 220.635C509.725 220.462 509.775 220.257 509.775 220.02C509.775 219.783 509.739 219.582 509.666 219.418C509.602 219.254 509.497 219.122 509.352 219.021C509.215 218.921 509.042 218.848 508.832 218.803C508.622 218.757 508.376 218.734 508.094 218.734H506.357V230H501.75V215.207H508.094C509.069 215.207 509.944 215.294 510.719 215.467C511.493 215.631 512.15 215.886 512.688 216.232C513.234 216.57 513.654 216.998 513.945 217.518C514.237 218.037 514.383 218.648 514.383 219.35C514.383 219.805 514.273 220.234 514.055 220.635C513.836 221.036 513.512 221.391 513.084 221.701C512.665 222.011 512.145 222.266 511.525 222.467C510.906 222.658 510.195 222.777 509.393 222.822L509.051 223.971ZM509.051 230H503.514L504.922 226.473H509.051C509.434 226.473 509.743 226.427 509.98 226.336C510.217 226.245 510.391 226.108 510.5 225.926C510.609 225.743 510.664 225.52 510.664 225.256C510.664 225.001 510.618 224.777 510.527 224.586C510.436 224.395 510.272 224.244 510.035 224.135C509.807 224.025 509.479 223.971 509.051 223.971H505.441L505.469 221.127H509.365L510.35 222.289C511.498 222.353 512.432 222.549 513.152 222.877C513.882 223.205 514.415 223.62 514.752 224.121C515.098 224.622 515.271 225.174 515.271 225.775C515.271 226.477 515.135 227.092 514.861 227.621C514.597 228.15 514.201 228.592 513.672 228.947C513.143 229.294 512.492 229.558 511.717 229.74C510.951 229.913 510.062 230 509.051 230Z" fill="#263238"/>
</svg>
